name GIL02_static.mot
datacolumns 141
datarows 4
range 0.22499999 0.25000000
endheader

                time	           pelvis_tx	           pelvis_ty	           pelvis_tz	         pelvis_tilt	         pelvis_list	     pelvis_rotation	       hip_flexion_r	     hip_adduction_r	      hip_rotation_r	        knee_angle_r	       ankle_angle_r	    subtalar_angle_r	         mtp_angle_r	       hip_flexion_l	     hip_adduction_l	      hip_rotation_l	        knee_angle_l	       ankle_angle_l	    subtalar_angle_l	         mtp_angle_l	    lumbar_extension	      lumbar_bending	     lumbar_rotation	    ground_marker_px	    ground_marker_py	    ground_marker_pz	    ground_marker_px	    ground_marker_py	    ground_marker_pz	    ground_marker_px	    ground_marker_py	    ground_marker_pz	    ground_marker_px	    ground_marker_py	    ground_marker_pz	    ground_marker_px	    ground_marker_py	    ground_marker_pz	    ground_marker_px	    ground_marker_py	    ground_marker_pz	    ground_marker_px	    ground_marker_py	    ground_marker_pz	    ground_marker_px	    ground_marker_py	    ground_marker_pz	    ground_marker_px	    ground_marker_py	    ground_marker_pz	    ground_marker_px	    ground_marker_py	    ground_marker_pz	    ground_marker_px	    ground_marker_py	    ground_marker_pz	    ground_marker_px	    ground_marker_py	    ground_marker_pz	    ground_marker_px	    ground_marker_py	    ground_marker_pz	    ground_marker_px	    ground_marker_py	    ground_marker_pz	    ground_marker_px	    ground_marker_py	    ground_marker_pz	    ground_marker_px	    ground_marker_py	    ground_marker_pz	    ground_marker_px	    ground_marker_py	    ground_marker_pz	    ground_marker_px	    ground_marker_py	    ground_marker_pz	    ground_marker_px	    ground_marker_py	    ground_marker_pz	    ground_marker_px	    ground_marker_py	    ground_marker_pz	    ground_marker_px	    ground_marker_py	    ground_marker_pz	    ground_marker_px	    ground_marker_py	    ground_marker_pz	    ground_marker_px	    ground_marker_py	    ground_marker_pz	    ground_marker_px	    ground_marker_py	    ground_marker_pz	    ground_marker_px	    ground_marker_py	    ground_marker_pz	    ground_marker_px	    ground_marker_py	    ground_marker_pz	    ground_marker_px	    ground_marker_py	    ground_marker_pz	    ground_marker_px	    ground_marker_py	    ground_marker_pz	    ground_marker_px	    ground_marker_py	    ground_marker_pz	    ground_marker_px	    ground_marker_py	    ground_marker_pz	    ground_marker_px	    ground_marker_py	    ground_marker_pz	    ground_marker_px	    ground_marker_py	    ground_marker_pz	    ground_marker_px	    ground_marker_py	    ground_marker_pz	    ground_marker_px	    ground_marker_py	    ground_marker_pz	    ground_marker_px	    ground_marker_py	    ground_marker_pz	    ground_marker_px	    ground_marker_py	    ground_marker_pz	    ground_marker_px	    ground_marker_py	    ground_marker_pz	    ground_marker_px	    ground_marker_py	    ground_marker_pz	    ground_marker_px	    ground_marker_py	    ground_marker_pz	
          0.22499999	          1.56577921	          0.96008593	         -0.24627140	         -5.31341553	          2.09395337	         -1.96541703	          2.38420677	         -7.50988770	         11.04629803	         -1.16911781	          4.03907347	          0.00000000	          0.00000000	         -0.29939079	         -1.79830885	          5.19785309	         -1.25382745	          6.00140047	          0.00000000	          0.00000000	         -2.89807081	          1.89010155	         -4.13020468	          1.47891498	          0.90536892	         -0.25069648	          1.46650553	          0.87982309	         -0.17727834	          1.47306561	          0.88353199	         -0.32751876	          1.44322085	          0.46988764	         -0.13439141	          1.43210101	          0.46126693	         -0.35308614	          1.40648854	          0.06961893	         -0.13040817	          1.38374949	          0.07114326	         -0.36330098	          1.56577921	          0.96008593	         -0.24627140	          1.56058896	          0.95715153	         -0.12740628	          1.57096934	          0.96302032	         -0.36513650	          1.38084316	          1.01783812	         -0.22086976	          1.38770247	          1.01684189	         -0.30689698	          1.45261610	          0.47557822	         -0.07489692	          1.44029343	          0.46406704	         -0.41245821	          1.42795265	          0.47597858	         -0.18327902	          1.42719424	          0.46581247	         -0.30173200	          1.39115858	          0.07141445	         -0.09134708	          1.36505127	          0.07441226	         -0.39964223	          1.41566169	          0.08327843	         -0.15773851	          1.39100373	          0.08332206	         -0.33841699	          1.34278786	          0.04251364	         -0.14382912	          1.31761253	          0.04297334	         -0.35214594	          1.48676372	          1.37016404	         -0.23445031	          1.56888890	          1.20654809	         -0.24420173	          1.37455630	          1.43663406	         -0.23933649	          1.49761212	          1.35970914	         -0.18228398	          1.51044738	          1.36480141	         -0.28905189	          1.52573824	          0.03936372	         -0.09935812	          1.50044167	          0.04114366	         -0.40182644	          1.50654721	          0.59131253	         -0.00960091	          1.59677696	          0.55318588	         -0.34185869	          1.52248704	          0.65093255	         -0.08247601	          1.53505397	          0.61875367	         -0.38149065	          1.51403630	          0.56338286	         -0.09734631	          1.50834167	          0.53546059	         -0.38553181	          1.41806352	          0.20496352	         -0.00560515	          1.40599000	          0.21193656	         -0.47947291	          1.40608943	          0.17173474	         -0.07803670	          1.38562620	          0.17357451	         -0.41036394	
          0.23333333	          1.56577635	          0.96014398	         -0.24632713	         -5.29429817	          2.09897876	         -1.98991024	          2.37316227	         -7.51736832	         11.07118511	         -1.17461467	          4.03375530	          0.00000000	          0.00000000	         -0.32860756	         -1.78735304	          5.17253542	         -1.24273026	          6.00483799	          0.00000000	          0.00000000	         -2.90036917	          1.97464585	         -4.15678644	          1.47874665	          0.90527588	         -0.25055361	          1.46649826	          0.87985247	         -0.17737366	          1.47312248	          0.88355702	         -0.32761142	          1.44324231	          0.46988079	         -0.13442463	          1.43208301	          0.46128446	         -0.35310677	          1.40650070	          0.06962167	         -0.13039437	          1.38374448	          0.07113767	         -0.36330780	          1.56577635	          0.96014398	         -0.24632713	          1.56053746	          0.95721418	         -0.12750822	          1.57101524	          0.96307379	         -0.36514604	          1.38075554	          1.01785982	         -0.22092021	          1.38772511	          1.01682281	         -0.30690071	          1.45263767	          0.47558045	         -0.07493102	          1.44027364	          0.46407315	         -0.41247961	          1.42803109	          0.47640333	         -0.18388279	          1.42723012	          0.46590820	         -0.30175957	          1.39117074	          0.07142218	         -0.09133350	          1.36504579	          0.07440462	         -0.39964902	          1.41566896	          0.08312022	         -0.15780818	          1.39097404	          0.08335280	         -0.33844435	          1.34279001	          0.04251847	         -0.14383690	          1.31762207	          0.04296554	         -0.35214260	          1.48678982	          1.37014532	         -0.23449332	          1.56897604	          1.20656776	         -0.24437688	          1.37446892	          1.43663681	         -0.23935524	          1.49758351	          1.35962248	         -0.18232198	          1.51053572	          1.36486423	         -0.28908360	          1.52575457	          0.03935344	         -0.09931079	          1.50042260	          0.04115405	         -0.40183315	          1.50655615	          0.59130716	         -0.00959831	          1.59684372	          0.55321079	         -0.34192821	          1.52248859	          0.65100747	         -0.08251026	          1.53522015	          0.61883348	         -0.38155872	          1.51408160	          0.56361157	         -0.09764887	          1.50840104	          0.53539509	         -0.38558215	          1.41810405	          0.20496613	         -0.00561339	          1.40597308	          0.21193548	         -0.47949457	          1.40596759	          0.17166391	         -0.07815713	          1.38549531	          0.17368267	         -0.41042563	
          0.24166666	          1.56577277	          0.96019089	         -0.24637112	         -5.27899170	          2.10438943	         -2.01899290	          2.36613941	         -7.52580547	         11.11213303	         -1.17685425	          4.02799320	          0.00000000	          0.00000000	         -0.35280895	         -1.77850366	          5.14053726	         -1.23372400	          6.00887632	          0.00000000	          0.00000000	         -2.88884974	          1.98493576	         -4.20082569	          1.47893822	          0.90547800	         -0.25036389	          1.46647942	          0.87987882	         -0.17746365	          1.47317958	          0.88357598	         -0.32769820	          1.44324887	          0.46987733	         -0.13443969	          1.43207645	          0.46130338	         -0.35313120	          1.40650368	          0.06962723	         -0.13038842	          1.38374436	          0.07113294	         -0.36331353	          1.56577277	          0.96019089	         -0.24637112	          1.56047523	          0.95726776	         -0.12758835	          1.57107031	          0.96311396	         -0.36515388	          1.38068020	          1.01788247	         -0.22094823	          1.38776064	          1.01679850	         -0.30689692	          1.45265639	          0.47558704	         -0.07494896	          1.44026339	          0.46408245	         -0.41250500	          1.42796707	          0.47665167	         -0.18413550	          1.42730224	          0.46569324	         -0.30201840	          1.39118135	          0.07142930	         -0.09132463	          1.36504400	          0.07439782	         -0.39965406	          1.41578627	          0.08292957	         -0.15783040	          1.39081907	          0.08333573	         -0.33842662	          1.34279299	          0.04253084	         -0.14385602	          1.31763816	          0.04296196	         -0.35214582	          1.48674953	          1.37014437	         -0.23453631	          1.56901515	          1.20660055	         -0.24431373	          1.37434053	          1.43660688	         -0.23935948	          1.49748456	          1.35962784	         -0.18239237	          1.51056361	          1.36487150	         -0.28905427	          1.52577353	          0.03934946	         -0.09926985	          1.50041723	          0.04116613	         -0.40183899	          1.50655031	          0.59130609	         -0.00959539	          1.59690797	          0.55323291	         -0.34199306	          1.52253103	          0.65117967	         -0.08274536	          1.53523624	          0.61887717	         -0.38160917	          1.51408410	          0.56380618	         -0.09790451	          1.50843167	          0.53523540	         -0.38573468	          1.41813493	          0.20496570	         -0.00561873	          1.40596676	          0.21193023	         -0.47950312	          1.40580475	          0.17164069	         -0.07827433	          1.38530719	          0.17377070	         -0.41046321	
          0.25000000	          1.56576705	          0.96022606	         -0.24640700	         -5.26754761	          2.11022925	         -2.05333281	          2.36469746	         -7.53544855	         11.16455269	         -1.17830884	          4.02420855	          0.00000000	          0.00000000	         -0.37142563	         -1.77139461	          5.10175562	         -1.22735846	          6.01310825	          0.00000000	          0.00000000	         -2.93574357	          2.03958750	         -4.23133421	          1.47914100	          0.90567279	         -0.25015068	          1.46644628	          0.87990201	         -0.17755289	          1.47323644	          0.88358819	         -0.32778370	          1.44324827	          0.46988010	         -0.13443838	          1.43208420	          0.46132243	         -0.35316035	          1.40650058	          0.06963332	         -0.13038968	          1.38375223	          0.07112733	         -0.36331707	          1.56576705	          0.96022606	         -0.24640700	          1.56039929	          0.95731205	         -0.12764670	          1.57113469	          0.96314007	         -0.36516729	          1.38062000	          1.01790273	         -0.22095650	          1.38781583	          1.01676786	         -0.30688393	          1.45267427	          0.47560194	         -0.07495175	          1.44026625	          0.46409327	         -0.41253522	          1.42786694	          0.47663444	         -0.18410687	          1.42731786	          0.46551257	         -0.30209252	          1.39118993	          0.07143424	         -0.09132129	          1.36504900	          0.07438994	         -0.39965639	          1.41589153	          0.08287057	         -0.15782414	          1.39064837	          0.08324007	         -0.33836445	          1.34279740	          0.04254784	         -0.14388239	          1.31765699	          0.04296249	         -0.35215327	          1.48661745	          1.37011182	         -0.23457611	          1.56879127	          1.20652378	         -0.24438730	          1.37432933	          1.43659973	         -0.23941264	          1.49729192	          1.35954940	         -0.18251330	          1.51048505	          1.36486459	         -0.28898329	          1.52578998	          0.03935454	         -0.09924696	          1.50042748	          0.04117811	         -0.40184391	          1.50652635	          0.59130907	         -0.00959243	          1.59696615	          0.55325025	         -0.34204775	          1.52261150	          0.65121382	         -0.08305975	          1.53510189	          0.61875236	         -0.38162830	          1.51408243	          0.56390655	         -0.09803825	          1.50838149	          0.53523004	         -0.38579804	          1.41815293	          0.20496131	         -0.00562060	          1.40597570	          0.21192192	         -0.47950032	          1.40589201	          0.17166871	         -0.07824340	          1.38522732	          0.17381719	         -0.41043898	
